<svg width="149" height="35" viewBox="0 0 149 35" fill="none" xmlns="http://www.w3.org/2000/svg">
<g filter="url(#filter0_di_8_3)">
<mask id="path-1-outside-1_8_3" maskUnits="userSpaceOnUse" x="4" y="0" width="141" height="27" fill="black">
<rect fill="white" x="4" width="141" height="27"/>
<path d="M11.5 11L16.3636 1.54545H22.2727V19H16.3636V9.5L11.5 19H5.59091V1.54545H11.5V11ZM36.2841 12.5L40.1023 1.54545H44.5568L38.2386 19H34.3295L28.1932 1.54545H32.6477L36.2841 12.5ZM31.375 1.54545V19H25.4659V1.54545H31.375ZM41.6023 19V1.54545H47.4205V19H41.6023ZM50.4347 19V1.54545H66.7074V19H60.7983V6.22727H56.2528V19H50.4347ZM73.0966 25.5455C72.3769 25.5455 71.6913 25.4886 71.0398 25.375C70.3883 25.2689 69.8163 25.1212 69.3239 24.9318L70.6875 20.4773C71.2027 20.6591 71.6723 20.7765 72.0966 20.8295C72.5284 20.8826 72.8958 20.8523 73.1989 20.7386C73.5095 20.625 73.733 20.4091 73.8693 20.0909L74.0057 19.7727L67.8693 1.54545H74.4148L77.233 13.6364H77.4148L80.2784 1.54545H86.8693L80.5057 20.4545C80.1875 21.4167 79.7254 22.2803 79.1193 23.0455C78.5208 23.8182 77.733 24.428 76.7557 24.875C75.7784 25.322 74.5587 25.5455 73.0966 25.5455ZM86.5966 19L86.5511 14.2727H87.0966C87.4375 14.2727 87.7367 14.1742 87.9943 13.9773C88.2595 13.7803 88.483 13.4773 88.6648 13.0682C88.8542 12.6591 89.0019 12.1402 89.108 11.5114C89.2216 10.8826 89.2936 10.1364 89.3239 9.27273L89.5966 1.54545H103.96V19H98.0511V6.22727H95.142L94.8693 10.9545C94.7936 12.4394 94.5814 13.697 94.233 14.7273C93.892 15.7576 93.4375 16.5871 92.8693 17.2159C92.3011 17.8371 91.642 18.2917 90.892 18.5795C90.142 18.8598 89.3163 19 88.4148 19H86.5966ZM110.466 6.27273H115.83C118.322 6.27273 120.284 6.84848 121.716 8C123.148 9.14394 123.867 10.7197 123.875 12.7273C123.867 14.0227 123.538 15.1402 122.886 16.0795C122.242 17.0189 121.318 17.7424 120.114 18.25C118.917 18.75 117.489 19 115.83 19H106.966V1.54545H112.875V14.3182H115.83C116.473 14.3182 117.004 14.1667 117.42 13.8636C117.837 13.553 118.049 13.1591 118.057 12.6818C118.049 12.1742 117.837 11.7614 117.42 11.4432C117.004 11.1174 116.473 10.9545 115.83 10.9545H110.466V6.27273ZM134.906 19.3182C133.012 19.3182 131.391 18.9432 130.043 18.1932C128.694 17.4356 127.66 16.3826 126.94 15.0341C126.221 13.678 125.861 12.1061 125.861 10.3182C125.861 8.5303 126.221 6.96212 126.94 5.61364C127.66 4.25758 128.694 3.20454 130.043 2.45454C131.391 1.69697 133.012 1.31818 134.906 1.31818C136.618 1.31818 138.099 1.62879 139.349 2.25C140.607 2.86364 141.58 3.73485 142.27 4.86364C142.959 5.98485 143.308 7.30303 143.315 8.81818H137.497C137.414 7.90151 137.149 7.20454 136.702 6.72727C136.262 6.24242 135.694 6 134.997 6C134.452 6 133.974 6.15909 133.565 6.47727C133.156 6.78788 132.838 7.26136 132.611 7.89773C132.384 8.52652 132.27 9.31818 132.27 10.2727C132.27 11.2273 132.384 12.0227 132.611 12.6591C132.838 13.2879 133.156 13.7614 133.565 14.0795C133.974 14.3902 134.452 14.5455 134.997 14.5455C135.459 14.5455 135.868 14.4394 136.224 14.2273C136.58 14.0076 136.868 13.6894 137.088 13.2727C137.315 12.8485 137.452 12.3333 137.497 11.7273H143.315C143.293 13.2652 142.94 14.6061 142.259 15.75C141.577 16.8864 140.611 17.7652 139.361 18.3864C138.118 19.0076 136.634 19.3182 134.906 19.3182Z"/>
</mask>
<path d="M11.5 11L16.3636 1.54545H22.2727V19H16.3636V9.5L11.5 19H5.59091V1.54545H11.5V11ZM36.2841 12.5L40.1023 1.54545H44.5568L38.2386 19H34.3295L28.1932 1.54545H32.6477L36.2841 12.5ZM31.375 1.54545V19H25.4659V1.54545H31.375ZM41.6023 19V1.54545H47.4205V19H41.6023ZM50.4347 19V1.54545H66.7074V19H60.7983V6.22727H56.2528V19H50.4347ZM73.0966 25.5455C72.3769 25.5455 71.6913 25.4886 71.0398 25.375C70.3883 25.2689 69.8163 25.1212 69.3239 24.9318L70.6875 20.4773C71.2027 20.6591 71.6723 20.7765 72.0966 20.8295C72.5284 20.8826 72.8958 20.8523 73.1989 20.7386C73.5095 20.625 73.733 20.4091 73.8693 20.0909L74.0057 19.7727L67.8693 1.54545H74.4148L77.233 13.6364H77.4148L80.2784 1.54545H86.8693L80.5057 20.4545C80.1875 21.4167 79.7254 22.2803 79.1193 23.0455C78.5208 23.8182 77.733 24.428 76.7557 24.875C75.7784 25.322 74.5587 25.5455 73.0966 25.5455ZM86.5966 19L86.5511 14.2727H87.0966C87.4375 14.2727 87.7367 14.1742 87.9943 13.9773C88.2595 13.7803 88.483 13.4773 88.6648 13.0682C88.8542 12.6591 89.0019 12.1402 89.108 11.5114C89.2216 10.8826 89.2936 10.1364 89.3239 9.27273L89.5966 1.54545H103.96V19H98.0511V6.22727H95.142L94.8693 10.9545C94.7936 12.4394 94.5814 13.697 94.233 14.7273C93.892 15.7576 93.4375 16.5871 92.8693 17.2159C92.3011 17.8371 91.642 18.2917 90.892 18.5795C90.142 18.8598 89.3163 19 88.4148 19H86.5966ZM110.466 6.27273H115.83C118.322 6.27273 120.284 6.84848 121.716 8C123.148 9.14394 123.867 10.7197 123.875 12.7273C123.867 14.0227 123.538 15.1402 122.886 16.0795C122.242 17.0189 121.318 17.7424 120.114 18.25C118.917 18.75 117.489 19 115.83 19H106.966V1.54545H112.875V14.3182H115.83C116.473 14.3182 117.004 14.1667 117.42 13.8636C117.837 13.553 118.049 13.1591 118.057 12.6818C118.049 12.1742 117.837 11.7614 117.42 11.4432C117.004 11.1174 116.473 10.9545 115.83 10.9545H110.466V6.27273ZM134.906 19.3182C133.012 19.3182 131.391 18.9432 130.043 18.1932C128.694 17.4356 127.66 16.3826 126.94 15.0341C126.221 13.678 125.861 12.1061 125.861 10.3182C125.861 8.5303 126.221 6.96212 126.94 5.61364C127.66 4.25758 128.694 3.20454 130.043 2.45454C131.391 1.69697 133.012 1.31818 134.906 1.31818C136.618 1.31818 138.099 1.62879 139.349 2.25C140.607 2.86364 141.58 3.73485 142.27 4.86364C142.959 5.98485 143.308 7.30303 143.315 8.81818H137.497C137.414 7.90151 137.149 7.20454 136.702 6.72727C136.262 6.24242 135.694 6 134.997 6C134.452 6 133.974 6.15909 133.565 6.47727C133.156 6.78788 132.838 7.26136 132.611 7.89773C132.384 8.52652 132.27 9.31818 132.27 10.2727C132.27 11.2273 132.384 12.0227 132.611 12.6591C132.838 13.2879 133.156 13.7614 133.565 14.0795C133.974 14.3902 134.452 14.5455 134.997 14.5455C135.459 14.5455 135.868 14.4394 136.224 14.2273C136.58 14.0076 136.868 13.6894 137.088 13.2727C137.315 12.8485 137.452 12.3333 137.497 11.7273H143.315C143.293 13.2652 142.94 14.6061 142.259 15.75C141.577 16.8864 140.611 17.7652 139.361 18.3864C138.118 19.0076 136.634 19.3182 134.906 19.3182Z" fill="#E8EAFF"/>
<path d="M11.5 11H10.5L12.3892 11.4574L11.5 11ZM16.3636 1.54545V0.545454H15.7535L15.4744 1.08801L16.3636 1.54545ZM22.2727 1.54545H23.2727V0.545454H22.2727V1.54545ZM22.2727 19V20H23.2727V19H22.2727ZM16.3636 19H15.3636V20H16.3636V19ZM16.3636 9.5H17.3636L15.4735 9.04429L16.3636 9.5ZM11.5 19V20H12.1115L12.3901 19.4557L11.5 19ZM5.59091 19H4.59091V20H5.59091V19ZM5.59091 1.54545V0.545454H4.59091V1.54545H5.59091ZM11.5 1.54545H12.5V0.545454H11.5V1.54545ZM12.3892 11.4574L17.2529 2.0029L15.4744 1.08801L10.6108 10.5426L12.3892 11.4574ZM16.3636 2.54545H22.2727V0.545454H16.3636V2.54545ZM21.2727 1.54545V19H23.2727V1.54545H21.2727ZM22.2727 18H16.3636V20H22.2727V18ZM17.3636 19V9.5H15.3636V19H17.3636ZM15.4735 9.04429L10.6099 18.5443L12.3901 19.4557L17.2538 9.95571L15.4735 9.04429ZM11.5 18H5.59091V20H11.5V18ZM6.59091 19V1.54545H4.59091V19H6.59091ZM5.59091 2.54545H11.5V0.545454H5.59091V2.54545ZM10.5 1.54545V11H12.5V1.54545H10.5ZM36.2841 12.5L35.335 12.815L36.261 15.6046L37.2284 12.8291L36.2841 12.5ZM40.1023 1.54545V0.545454H39.3918L39.158 1.21633L40.1023 1.54545ZM44.5568 1.54545L45.4971 1.88582L45.9823 0.545454H44.5568V1.54545ZM38.2386 19V20H38.9402L39.1789 19.3404L38.2386 19ZM34.3295 19L33.3861 19.3317L33.6211 20H34.3295V19ZM28.1932 1.54545V0.545454H26.7816L27.2498 1.87712L28.1932 1.54545ZM32.6477 1.54545L33.5968 1.23041L33.3694 0.545454H32.6477V1.54545ZM31.375 1.54545H32.375V0.545454H31.375V1.54545ZM31.375 19V20H32.375V19H31.375ZM25.4659 19H24.4659V20H25.4659V19ZM25.4659 1.54545V0.545454H24.4659V1.54545H25.4659ZM41.6023 19H40.6023V20H41.6023V19ZM41.6023 1.54545V0.545454H40.6023V1.54545H41.6023ZM47.4205 1.54545H48.4205V0.545454H47.4205V1.54545ZM47.4205 19V20H48.4205V19H47.4205ZM37.2284 12.8291L41.0466 1.87458L39.158 1.21633L35.3398 12.1709L37.2284 12.8291ZM40.1023 2.54545H44.5568V0.545454H40.1023V2.54545ZM43.6165 1.20509L37.2983 18.6596L39.1789 19.3404L45.4971 1.88582L43.6165 1.20509ZM38.2386 18H34.3295V20H38.2386V18ZM35.2729 18.6683L29.1366 1.21379L27.2498 1.87712L33.3861 19.3317L35.2729 18.6683ZM28.1932 2.54545H32.6477V0.545454H28.1932V2.54545ZM31.6987 1.8605L35.335 12.815L37.2332 12.185L33.5968 1.23041L31.6987 1.8605ZM30.375 1.54545V19H32.375V1.54545H30.375ZM31.375 18H25.4659V20H31.375V18ZM26.4659 19V1.54545H24.4659V19H26.4659ZM25.4659 2.54545H31.375V0.545454H25.4659V2.54545ZM42.6023 19V1.54545H40.6023V19H42.6023ZM41.6023 2.54545H47.4205V0.545454H41.6023V2.54545ZM46.4205 1.54545V19H48.4205V1.54545H46.4205ZM47.4205 18H41.6023V20H47.4205V18ZM50.4347 19H49.4347V20H50.4347V19ZM50.4347 1.54545V0.545454H49.4347V1.54545H50.4347ZM66.7074 1.54545H67.7074V0.545454H66.7074V1.54545ZM66.7074 19V20H67.7074V19H66.7074ZM60.7983 19H59.7983V20H60.7983V19ZM60.7983 6.22727H61.7983V5.22727H60.7983V6.22727ZM56.2528 6.22727V5.22727H55.2528V6.22727H56.2528ZM56.2528 19V20H57.2528V19H56.2528ZM51.4347 19V1.54545H49.4347V19H51.4347ZM50.4347 2.54545H66.7074V0.545454H50.4347V2.54545ZM65.7074 1.54545V19H67.7074V1.54545H65.7074ZM66.7074 18H60.7983V20H66.7074V18ZM61.7983 19V6.22727H59.7983V19H61.7983ZM60.7983 5.22727H56.2528V7.22727H60.7983V5.22727ZM55.2528 6.22727V19H57.2528V6.22727H55.2528ZM56.2528 18H50.4347V20H56.2528V18ZM71.0398 25.375L71.2116 24.3898L71.2004 24.388L71.0398 25.375ZM69.3239 24.9318L68.3677 24.6391L68.0948 25.5305L68.9649 25.8652L69.3239 24.9318ZM70.6875 20.4773L71.0203 19.5343L70.0366 19.1871L69.7313 20.1846L70.6875 20.4773ZM72.0966 20.8295L71.9726 21.8218L71.9747 21.8221L72.0966 20.8295ZM73.1989 20.7386L72.8553 19.7995L72.8477 19.8023L73.1989 20.7386ZM73.8693 20.0909L74.7885 20.4848L74.7885 20.4848L73.8693 20.0909ZM74.0057 19.7727L74.9248 20.1666L75.0753 19.8156L74.9534 19.4537L74.0057 19.7727ZM67.8693 1.54545V0.545454H66.4775L66.9216 1.86452L67.8693 1.54545ZM74.4148 1.54545L75.3887 1.31846L75.2085 0.545454H74.4148V1.54545ZM77.233 13.6364L76.2591 13.8634L76.4392 14.6364H77.233V13.6364ZM77.4148 13.6364V14.6364H78.2056L78.3879 13.8668L77.4148 13.6364ZM80.2784 1.54545V0.545454H79.4876L79.3053 1.31499L80.2784 1.54545ZM86.8693 1.54545L87.8171 1.86441L88.261 0.545454H86.8693V1.54545ZM80.5057 20.4545L79.5579 20.1356L79.5563 20.1406L80.5057 20.4545ZM79.1193 23.0455L78.3354 22.4245L78.3287 22.4331L79.1193 23.0455ZM76.7557 24.875L76.3398 23.9656L76.3398 23.9656L76.7557 24.875ZM73.0966 24.5455C72.4295 24.5455 71.8017 24.4928 71.2116 24.3899L70.8679 26.3601C71.5809 26.4845 72.3243 26.5455 73.0966 26.5455V24.5455ZM71.2004 24.388C70.6006 24.2903 70.0976 24.158 69.6828 23.9985L68.9649 25.8652C69.535 26.0844 70.1759 26.2475 70.8791 26.362L71.2004 24.388ZM70.2801 25.2245L71.6437 20.77L69.7313 20.1846L68.3677 24.6391L70.2801 25.2245ZM70.3547 21.4203C70.9198 21.6197 71.4607 21.7578 71.9726 21.8218L72.2206 19.8373C71.884 19.7952 71.4855 19.6985 71.0203 19.5343L70.3547 21.4203ZM71.9747 21.8221C72.5138 21.8883 73.0532 21.8612 73.55 21.675L72.8477 19.8023C72.7384 19.8433 72.543 19.8769 72.2185 19.837L71.9747 21.8221ZM73.5424 21.6778C74.1251 21.4646 74.5492 21.043 74.7885 20.4848L72.9502 19.697C72.9284 19.7478 72.9104 19.7667 72.9046 19.7723C72.8997 19.7771 72.888 19.7875 72.8553 19.7995L73.5424 21.6778ZM74.7885 20.4848L74.9248 20.1666L73.0865 19.3788L72.9502 19.697L74.7885 20.4848ZM74.9534 19.4537L68.8171 1.22639L66.9216 1.86452L73.0579 20.0918L74.9534 19.4537ZM67.8693 2.54545H74.4148V0.545454H67.8693V2.54545ZM73.4409 1.77245L76.2591 13.8634L78.2069 13.4094L75.3887 1.31846L73.4409 1.77245ZM77.233 14.6364H77.4148V12.6364H77.233V14.6364ZM78.3879 13.8668L81.2515 1.77592L79.3053 1.31499L76.4417 13.4059L78.3879 13.8668ZM80.2784 2.54545H86.8693V0.545454H80.2784V2.54545ZM85.9215 1.22649L79.5579 20.1356L81.4535 20.7735L87.8171 1.86441L85.9215 1.22649ZM79.5563 20.1406C79.2734 20.9958 78.866 21.7547 78.3354 22.4246L79.9032 23.6664C80.5848 22.8059 81.1016 21.8376 81.4551 20.7685L79.5563 20.1406ZM78.3287 22.4331C77.8388 23.0656 77.1849 23.5791 76.3398 23.9656L77.1716 25.7844C78.281 25.277 79.2028 24.5707 79.9099 23.6578L78.3287 22.4331ZM76.3398 23.9656C75.5311 24.3354 74.464 24.5455 73.0966 24.5455V26.5455C74.6534 26.5455 76.0257 26.3085 77.1716 25.7844L76.3398 23.9656ZM86.5966 19L85.5966 19.0096L85.6062 20H86.5966V19ZM86.5511 14.2727V13.2727H85.5415L85.5512 14.2823L86.5511 14.2727ZM87.9943 13.9773L87.3979 13.1745L87.3869 13.1829L87.9943 13.9773ZM88.6648 13.0682L87.7573 12.6481L87.7541 12.655L87.751 12.662L88.6648 13.0682ZM89.108 11.5114L88.1238 11.3335L88.1219 11.345L89.108 11.5114ZM89.3239 9.27273L88.3245 9.23745L88.3245 9.23766L89.3239 9.27273ZM89.5966 1.54545V0.545454H88.6313L88.5972 1.51018L89.5966 1.54545ZM103.96 1.54545H104.96V0.545454H103.96V1.54545ZM103.96 19V20H104.96V19H103.96ZM98.0511 19H97.0511V20H98.0511V19ZM98.0511 6.22727H99.0511V5.22727H98.0511V6.22727ZM95.142 6.22727V5.22727H94.1981L94.1437 6.16968L95.142 6.22727ZM94.8693 10.9545L93.871 10.8969L93.8706 10.9036L94.8693 10.9545ZM94.233 14.7273L93.2857 14.4069L93.2836 14.4131L94.233 14.7273ZM92.8693 17.2159L93.6072 17.8908L93.6113 17.8864L92.8693 17.2159ZM90.892 18.5795L91.2421 19.5163L91.2504 19.5131L90.892 18.5795ZM87.5965 18.9904L87.5511 14.2631L85.5512 14.2823L85.5966 19.0096L87.5965 18.9904ZM86.5511 15.2727H87.0966V13.2727H86.5511V15.2727ZM87.0966 15.2727C87.645 15.2727 88.1604 15.1091 88.6018 14.7716L87.3869 13.1829C87.3131 13.2394 87.23 13.2727 87.0966 13.2727V15.2727ZM88.5906 14.78C89.0345 14.4503 89.3507 13.9871 89.5786 13.4743L87.751 12.662C87.6152 12.9674 87.4844 13.1103 87.398 13.1745L88.5906 14.78ZM89.5722 13.4883C89.8109 12.9728 89.9788 12.3611 90.094 11.6777L88.1219 11.345C88.025 11.9192 87.8974 12.3454 87.7573 12.6481L89.5722 13.4883ZM90.092 11.6892C90.2165 11.0001 90.2918 10.2038 90.3232 9.30779L88.3245 9.23766C88.2953 10.0689 88.2266 10.765 88.1239 11.3335L90.092 11.6892ZM90.3232 9.308L90.596 1.58073L88.5972 1.51018L88.3245 9.23745L90.3232 9.308ZM89.5966 2.54545H103.96V0.545454H89.5966V2.54545ZM102.96 1.54545V19H104.96V1.54545H102.96ZM103.96 18H98.0511V20H103.96V18ZM99.0511 19V6.22727H97.0511V19H99.0511ZM98.0511 5.22727H95.142V7.22727H98.0511V5.22727ZM94.1437 6.16968L93.871 10.8969L95.8677 11.0121L96.1404 6.28487L94.1437 6.16968ZM93.8706 10.9036C93.798 12.3278 93.5962 13.4888 93.2857 14.4069L95.1802 15.0477C95.5667 13.9051 95.7892 12.551 95.868 11.0055L93.8706 10.9036ZM93.2836 14.4131C92.9745 15.3471 92.5802 16.0443 92.1274 16.5455L93.6113 17.8864C94.2948 17.1299 94.8096 16.168 95.1823 15.0414L93.2836 14.4131ZM92.1314 16.541C91.6628 17.0534 91.1318 17.4164 90.5337 17.646L91.2504 19.5131C92.1522 19.167 92.9395 18.6209 93.6072 17.8908L92.1314 16.541ZM90.542 17.6428C89.9171 17.8764 89.2117 18 88.4148 18V20C89.4209 20 90.367 19.8433 91.2421 19.5163L90.542 17.6428ZM88.4148 18H86.5966V20H88.4148V18ZM110.466 6.27273V5.27273H109.466V6.27273H110.466ZM121.716 8L121.089 8.77926L121.092 8.78127L121.716 8ZM123.875 12.7273L124.875 12.7331L124.875 12.7235L123.875 12.7273ZM122.886 16.0795L122.065 15.5096L122.062 15.5141L122.886 16.0795ZM120.114 18.25L120.499 19.1727L120.502 19.1715L120.114 18.25ZM106.966 19H105.966V20H106.966V19ZM106.966 1.54545V0.545454H105.966V1.54545H106.966ZM112.875 1.54545H113.875V0.545454H112.875V1.54545ZM112.875 14.3182H111.875V15.3182H112.875V14.3182ZM117.42 13.8636L118.009 14.6724L118.018 14.6654L117.42 13.8636ZM118.057 12.6818L119.057 12.6977L119.057 12.6823L119.057 12.6669L118.057 12.6818ZM117.42 11.4432L116.804 12.231L116.814 12.2379L117.42 11.4432ZM110.466 10.9545H109.466V11.9545H110.466V10.9545ZM110.466 7.27273H115.83V5.27273H110.466V7.27273ZM115.83 7.27273C118.175 7.27273 119.889 7.81418 121.089 8.77926L122.343 7.22074C120.679 5.88279 118.469 5.27273 115.83 5.27273V7.27273ZM121.092 8.78127C122.262 9.71662 122.868 10.9932 122.875 12.731L124.875 12.7235C124.866 10.4462 124.033 8.57126 122.34 7.21873L121.092 8.78127ZM122.875 12.7214C122.868 13.843 122.586 14.7575 122.065 15.5096L123.708 16.6494C124.489 15.5228 124.866 14.2024 124.875 12.7331L122.875 12.7214ZM122.062 15.5141C121.541 16.2731 120.78 16.8841 119.725 17.3285L120.502 19.1715C121.856 18.6008 122.944 17.7648 123.711 16.6449L122.062 15.5141ZM119.728 17.3273C118.682 17.7642 117.392 18 115.83 18V20C117.586 20 119.151 19.7358 120.499 19.1727L119.728 17.3273ZM115.83 18H106.966V20H115.83V18ZM107.966 19V1.54545H105.966V19H107.966ZM106.966 2.54545H112.875V0.545454H106.966V2.54545ZM111.875 1.54545V14.3182H113.875V1.54545H111.875ZM112.875 15.3182H115.83V13.3182H112.875V15.3182ZM115.83 15.3182C116.631 15.3182 117.382 15.1278 118.009 14.6724L116.832 13.0549C116.625 13.2055 116.316 13.3182 115.83 13.3182V15.3182ZM118.018 14.6654C118.658 14.1883 119.044 13.5155 119.057 12.6977L117.057 12.6659C117.055 12.8027 117.016 12.9177 116.823 13.0619L118.018 14.6654ZM119.057 12.6669C119.044 11.8414 118.678 11.1455 118.027 10.6484L116.814 12.2379C116.996 12.3772 117.054 12.5071 117.057 12.6967L119.057 12.6669ZM118.036 10.6554C117.408 10.1642 116.647 9.95455 115.83 9.95455V11.9545C116.3 11.9545 116.599 12.0706 116.805 12.231L118.036 10.6554ZM115.83 9.95455H110.466V11.9545H115.83V9.95455ZM111.466 10.9545V6.27273H109.466V10.9545H111.466ZM130.043 18.1932L129.553 19.065L129.557 19.0671L130.043 18.1932ZM126.94 15.0341L126.057 15.5029L126.058 15.5049L126.94 15.0341ZM126.94 5.61364L127.823 6.08448L127.824 6.08243L126.94 5.61364ZM130.043 2.45454L130.529 3.32848L130.532 3.32638L130.043 2.45454ZM139.349 2.25L138.904 3.14553L138.911 3.14872L139.349 2.25ZM142.27 4.86364L141.416 5.38486L141.418 5.38741L142.27 4.86364ZM143.315 8.81818V9.81818H144.32L144.315 8.81318L143.315 8.81818ZM137.497 8.81818L136.501 8.90872L136.584 9.81818H137.497V8.81818ZM136.702 6.72727L135.961 7.39879L135.966 7.40486L135.972 7.41083L136.702 6.72727ZM133.565 6.47727L134.17 7.27377L134.179 7.26662L133.565 6.47727ZM132.611 7.89773L133.551 8.23765L133.553 8.23406L132.611 7.89773ZM132.611 12.6591L131.669 12.9954L131.67 12.999L132.611 12.6591ZM133.565 14.0795L132.951 14.869L132.961 14.876L133.565 14.0795ZM136.224 14.2273L136.736 15.0864L136.743 15.0824L136.75 15.0783L136.224 14.2273ZM137.088 13.2727L136.207 12.8005L136.204 12.8063L137.088 13.2727ZM137.497 11.7273V10.7273H136.569L136.5 11.6525L137.497 11.7273ZM143.315 11.7273L144.315 11.742L144.33 10.7273H143.315V11.7273ZM142.259 15.75L143.116 16.2645L143.118 16.262L142.259 15.75ZM139.361 18.3864L138.916 17.4909L138.914 17.4919L139.361 18.3864ZM134.906 18.3182C133.144 18.3182 131.698 17.9698 130.529 17.3193L129.557 19.0671C131.084 19.9166 132.881 20.3182 134.906 20.3182V18.3182ZM130.532 17.3213C129.348 16.6561 128.451 15.7412 127.823 14.5632L126.058 15.5049C126.869 17.0239 128.04 18.2151 129.553 19.065L130.532 17.3213ZM127.824 14.5653C127.192 13.3757 126.861 11.9696 126.861 10.3182H124.861C124.861 12.2425 125.249 13.9804 126.057 15.5029L127.824 14.5653ZM126.861 10.3182C126.861 8.66661 127.192 7.26528 127.823 6.08448L126.058 5.14279C125.249 6.65896 124.861 8.394 124.861 10.3182H126.861ZM127.824 6.08243C128.452 4.89786 129.348 3.98512 130.529 3.32847L129.557 1.58062C128.04 2.42397 126.868 3.61729 126.057 5.14484L127.824 6.08243ZM130.532 3.32638C131.701 2.66975 133.146 2.31818 134.906 2.31818V0.318182C132.879 0.318182 131.081 0.724184 129.553 1.58271L130.532 3.32638ZM134.906 2.31818C136.498 2.31818 137.82 2.60684 138.904 3.14551L139.794 1.35449C138.378 0.650734 136.738 0.318182 134.906 0.318182V2.31818ZM138.911 3.14872C140.007 3.68376 140.832 4.42852 141.416 5.38485L143.123 4.34242C142.329 3.04118 141.207 2.04351 139.788 1.35128L138.911 3.14872ZM141.418 5.38741C141.998 6.33014 142.309 7.46305 142.315 8.82318L144.315 8.81318C144.307 7.14301 143.921 5.63956 143.122 4.33986L141.418 5.38741ZM143.315 7.81818H137.497V9.81818H143.315V7.81818ZM138.493 8.72765C138.398 7.67765 138.082 6.73824 137.432 6.04372L135.972 7.41083C136.215 7.67084 136.43 8.12538 136.501 8.90872L138.493 8.72765ZM137.443 6.05575C136.8 5.34686 135.956 5 134.997 5V7C135.433 7 135.724 7.13799 135.961 7.39879L137.443 6.05575ZM134.997 5C134.242 5 133.546 5.22572 132.951 5.68792L134.179 7.26662C134.403 7.09246 134.662 7 134.997 7V5ZM132.961 5.68083C132.355 6.14059 131.941 6.79888 131.669 7.56139L133.553 8.23406C133.735 7.72385 133.957 7.43516 134.17 7.27372L132.961 5.68083ZM131.67 7.5578C131.391 8.3314 131.27 9.24771 131.27 10.2727H133.27C133.27 9.38865 133.376 8.72163 133.551 8.23765L131.67 7.5578ZM131.27 10.2727C131.27 11.2984 131.391 12.2166 131.669 12.9954L133.553 12.3228C133.376 11.8288 133.27 11.1561 133.27 10.2727H131.27ZM131.67 12.999C131.943 13.7546 132.356 14.4055 132.951 14.8689L134.179 13.2902C133.957 13.1172 133.733 12.8211 133.551 12.3192L131.67 12.999ZM132.961 14.876C133.555 15.3271 134.248 15.5455 134.997 15.5455V13.5455C134.656 13.5455 134.394 13.4532 134.17 13.2831L132.961 14.876ZM134.997 15.5455C135.618 15.5455 136.208 15.401 136.736 15.0864L135.713 13.3682C135.529 13.4778 135.3 13.5455 134.997 13.5455V15.5455ZM136.75 15.0783C137.276 14.7534 137.68 14.2935 137.973 13.7391L136.204 12.8063C136.056 13.0853 135.885 13.2617 135.699 13.3762L136.75 15.0783ZM137.97 13.7449C138.278 13.17 138.441 12.5119 138.494 11.8021L136.5 11.6525C136.462 12.1548 136.353 12.527 136.207 12.8005L137.97 13.7449ZM137.497 12.7273H143.315V10.7273H137.497V12.7273ZM142.315 11.7125C142.295 13.1026 141.979 14.2666 141.4 15.238L143.118 16.262C143.902 14.9455 144.29 13.4277 144.315 11.742L142.315 11.7125ZM141.401 15.2355C140.823 16.1992 140.004 16.9499 138.916 17.4909L139.806 19.2819C141.217 18.5804 142.331 17.5736 143.116 16.2645L141.401 15.2355ZM138.914 17.4919C137.84 18.0289 136.515 18.3182 134.906 18.3182V20.3182C136.752 20.3182 138.397 19.9863 139.808 19.2808L138.914 17.4919Z" fill="#49429E" mask="url(#path-1-outside-1_8_3)"/>
</g>
<defs>
<filter id="filter0_di_8_3" x="0.590912" y="0.318176" width="147.739" height="34.2273" filterUnits="userSpaceOnUse" color-interpolation-filters="sRGB">
<feFlood flood-opacity="0" result="BackgroundImageFix"/>
<feColorMatrix in="SourceAlpha" type="matrix" values="0 0 0 0 0 0 0 0 0 0 0 0 0 0 0 0 0 0 127 0" result="hardAlpha"/>
<feOffset dy="4"/>
<feGaussianBlur stdDeviation="2"/>
<feComposite in2="hardAlpha" operator="out"/>
<feColorMatrix type="matrix" values="0 0 0 0 0 0 0 0 0 0 0 0 0 0 0 0 0 0 0.25 0"/>
<feBlend mode="normal" in2="BackgroundImageFix" result="effect1_dropShadow_8_3"/>
<feBlend mode="normal" in="SourceGraphic" in2="effect1_dropShadow_8_3" result="shape"/>
<feColorMatrix in="SourceAlpha" type="matrix" values="0 0 0 0 0 0 0 0 0 0 0 0 0 0 0 0 0 0 127 0" result="hardAlpha"/>
<feOffset dy="4"/>
<feGaussianBlur stdDeviation="2"/>
<feComposite in2="hardAlpha" operator="arithmetic" k2="-1" k3="1"/>
<feColorMatrix type="matrix" values="0 0 0 0 0 0 0 0 0 0 0 0 0 0 0 0 0 0 0.25 0"/>
<feBlend mode="normal" in2="shape" result="effect2_innerShadow_8_3"/>
</filter>
</defs>
</svg>
