<!-- icon666.com - MILLIONS OF FREE VECTOR ICONS --><svg id="Layer_1" enable-background="new 0 0 512 512" viewBox="0 0 512 512" xmlns="http://www.w3.org/2000/svg"><g><g><g><path d="m238.2 388.7c-2.7 0-4.9-2.2-4.9-4.9v-13.1c0-2.7 2.2-4.9 4.9-4.9 2.6 0 4.9 2.2 4.9 4.9v13.1c0 2.7-2.2 4.9-4.9 4.9z" fill="#7e57c2"></path></g><g><path d="m273.8 388.7c-2.7 0-4.9-2.2-4.9-4.9v-13.1c0-2.7 2.2-4.9 4.9-4.9s4.9 2.2 4.9 4.9v13.1c-.1 2.7-2.2 4.9-4.9 4.9z" fill="#7e57c2"></path></g><g><path d="m202.7 388.7c-2.7 0-4.9-2.2-4.9-4.9v-13.1c0-2.7 2.2-4.9 4.9-4.9 2.6 0 4.9 2.2 4.9 4.9v13.1c-.1 2.7-2.3 4.9-4.9 4.9z" fill="#7e57c2"></path></g><g><path d="m309.3 388.7c-2.7 0-4.9-2.2-4.9-4.9v-13.1c0-2.7 2.2-4.9 4.9-4.9s4.9 2.2 4.9 4.9v13.1c.1 2.7-2.1 4.9-4.9 4.9z" fill="#7e57c2"></path></g></g><g><path d="m395.9 439.7h-279.6c-7.9 0-15.4-3.3-20.5-9.2-35.3-39.3-54.8-90.2-54.8-143.3 0-118.4 96.5-214.9 215-214.9s215 96.5 215 215c0 52.9-19.4 103.8-54.7 143.3-5.2 5.8-12.7 9.1-20.4 9.1zm-139.9-357.7c-113.1 0-205.3 92-205.3 205.3 0 50.7 18.5 99.2 52.3 136.8 3.3 3.8 8.1 5.9 13.2 5.9h279.6c5 0 9.8-2.1 13.2-5.9 33.7-37.7 52.2-86.2 52.2-136.8.1-113.2-92.1-205.3-205.2-205.3z" fill="#7e57c2"></path></g><g><path d="m395.7 417.1h-279.4c-1.4 0-2.7-.6-3.7-1.6-31.5-35.2-49-80.7-49-128.2 0-106 86.3-192.4 192.4-192.4s192.4 86.3 192.4 192.4c0 47.4-17.3 93-49 128.2-.9 1-2.2 1.6-3.7 1.6zm-277.3-9.8h275.2c29.1-33.2 45-75.7 45-120-.1-100.7-81.9-182.5-182.6-182.5s-182.5 81.8-182.5 182.5c0 44.3 16 86.8 44.9 120z" fill="#7e57c2"></path></g><g><path d="m256 134.2c-2.7 0-4.9-2.2-4.9-4.9v-29.4c0-2.7 2.2-4.9 4.9-4.9s4.9 2.2 4.9 4.9v29.5c0 2.6-2.2 4.8-4.9 4.8z" fill="#7e57c2"></path></g><g><path d="m195.5 146.3c-2 0-3.8-1.1-4.5-3l-11.3-27.3c-1-2.5.2-5.4 2.6-6.4 2.5-1 5.4.2 6.4 2.6l11.3 27.3c1 2.5-.2 5.4-2.6 6.4-.6.2-1.3.4-1.9.4z" fill="#7e57c2"></path></g><g><path d="m144.3 180.5c-1.3 0-2.5-.5-3.4-1.5l-20.9-20.8c-1.9-1.9-1.9-5 0-6.9s5-1.9 6.9 0l20.9 20.9c1.9 1.9 1.9 5 0 6.9-1 .8-2.2 1.4-3.5 1.4z" fill="#7e57c2"></path></g><g><path d="m110.1 231.7c-.6 0-1.3-.1-1.9-.3l-27.3-11.4c-2.5-1-3.7-3.9-2.6-6.4 1-2.5 3.9-3.7 6.4-2.6l27.3 11.4c2.5 1 3.7 3.9 2.6 6.4-.8 1.8-2.6 2.9-4.5 2.9z" fill="#7e57c2"></path></g><g><path d="m98.1 292.1h-29.5c-2.7 0-4.9-2.2-4.9-4.9s2.2-4.9 4.9-4.9h29.5c2.7 0 4.9 2.2 4.9 4.9 0 2.8-2.3 4.9-4.9 4.9z" fill="#7e57c2"></path></g><g><path d="m82.7 364c-1.9 0-3.8-1.1-4.5-3-1-2.5.2-5.4 2.6-6.4l27.3-11.4c2.5-1 5.4.2 6.4 2.6 1 2.5-.2 5.4-2.6 6.4l-27.3 11.4c-.6.2-1.2.4-1.9.4z" fill="#7e57c2"></path></g><g><path d="m429.3 364c-.6 0-1.3-.1-1.9-.3l-27.3-11.4c-2.5-1-3.7-3.9-2.6-6.4 1-2.5 3.9-3.7 6.4-2.6l27.3 11.4c2.5 1 3.7 3.9 2.6 6.4-.8 1.7-2.6 2.9-4.5 2.9z" fill="#7e57c2"></path></g><g><path d="m443.6 292.1h-29.7c-2.7 0-4.9-2.2-4.9-4.9s2.2-4.9 4.9-4.9h29.7c2.7 0 4.9 2.2 4.9 4.9-.1 2.8-2.3 4.9-4.9 4.9z" fill="#7e57c2"></path></g><g><path d="m401.9 231.7c-1.9 0-3.8-1.1-4.5-3-1-2.5.2-5.4 2.6-6.4l27.3-11.4c2.5-1 5.4.2 6.4 2.6 1 2.5-.2 5.4-2.6 6.4l-27.3 11.4c-.6.3-1.2.4-1.9.4z" fill="#7e57c2"></path></g><g><path d="m367.7 180.5c-1.3 0-2.5-.5-3.5-1.5-1.9-1.9-1.9-5 0-6.9l20.9-20.9c1.9-1.9 5-1.9 6.9 0s1.9 5 0 6.9l-20.9 20.9c-.9.9-2.1 1.5-3.4 1.5z" fill="#7e57c2"></path></g><g><path d="m316.5 146.3c-.6 0-1.3-.1-1.9-.3-2.5-1-3.7-3.8-2.6-6.4l11.3-27.3c1-2.5 3.8-3.7 6.4-2.6 2.5 1 3.7 3.8 2.6 6.4l-11.3 27.2c-.7 1.8-2.6 3-4.5 3z" fill="#7e57c2"></path></g><g><path d="m256 318.6c-17.3 0-31.4-14.1-31.4-31.4s14.1-31.4 31.4-31.4 31.4 14.1 31.4 31.4-14.1 31.4-31.4 31.4zm0-52.9c-11.9 0-21.6 9.7-21.6 21.6s9.7 21.6 21.6 21.6 21.6-9.7 21.6-21.6-9.7-21.6-21.6-21.6z" fill="#7e57c2"></path></g><g><g><path d="m282 287.1c-1.3 0-2.5-.5-3.4-1.5-1.9-1.9-1.9-5 0-6.9l53-53 2.1-16.3-15.9 2.3-53 53c-1.9 1.9-5 1.9-6.9 0s-1.9-5 0-6.9l54.2-54.2c.8-.8 1.7-1.2 2.7-1.4l23.8-3.4c1.5-.3 3 .3 4.1 1.4 1.1 1 1.6 2.6 1.5 4.1l-3 24.4c-.2 1.1-.6 2.1-1.4 2.8l-54.2 54.2c-1.1.9-2.3 1.4-3.6 1.4z" fill="#7e57c2"></path></g><g><path d="m226 339.1c-2.1 0-4.1-.8-5.7-2.4l-13.8-13.7c-3.1-3.1-3.2-7.9-.3-11.2l20.1-22.5c1.8-2.1 4.9-2.2 6.9-.4 2.1 1.8 2.2 4.9.4 6.9l-19.1 21.4 11.5 11.5 21.4-19.1c2.1-1.8 5.1-1.6 6.9.4 1.8 2.1 1.6 5.1-.4 6.9l-22.6 20.2c-1.4 1.4-3.3 2-5.3 2zm-1.1-9.4s-.1.1 0 0zm-11.4-11.4c0 .1 0 .1 0 0z" fill="#7e57c2"></path></g></g></g></svg>